<?xml version="1.0" encoding="utf-8"?>
<!-- Generator: Adobe Illustrator 16.0.0, SVG Export Plug-In . SVG Version: 6.00 Build 0)  -->
<svg version="1.2" baseProfile="tiny" id="Layer_1" xmlns="http://www.w3.org/2000/svg" xmlns:xlink="http://www.w3.org/1999/xlink"
	 x="0px" y="0px" width="480px" height="320px" viewBox="0 64 480 320" xml:space="preserve">
<g display="none">
	<line display="inline" fill="none" stroke="#B35047" x1="32" y1="0" x2="32" y2="448"/>
	<line display="inline" fill="none" stroke="#B35047" x1="64" y1="0" x2="64" y2="448"/>
	<line display="inline" fill="none" stroke="#B35047" x1="96" y1="0" x2="96" y2="448"/>
	<line display="inline" fill="none" stroke="#B35047" x1="128" y1="0" x2="128" y2="448"/>
	<line display="inline" fill="none" stroke="#B35047" x1="160" y1="0" x2="160" y2="448"/>
	<line display="inline" fill="none" stroke="#B35047" x1="192" y1="0" x2="192" y2="448"/>
	<line display="inline" fill="none" stroke="#B35047" x1="224" y1="0" x2="224" y2="448"/>
	<line display="inline" fill="none" stroke="#B35047" x1="256" y1="0" x2="256" y2="448"/>
	<line display="inline" fill="none" stroke="#B35047" x1="288" y1="0" x2="288" y2="448"/>
	<line display="inline" fill="none" stroke="#B35047" x1="320" y1="0" x2="320" y2="448"/>
	<line display="inline" fill="none" stroke="#B35047" x1="352" y1="0" x2="352" y2="448"/>
	<line display="inline" fill="none" stroke="#B35047" x1="384" y1="0" x2="384" y2="448"/>
	<line display="inline" fill="none" stroke="#B35047" x1="416" y1="0" x2="416" y2="448"/>
	<line display="inline" fill="none" stroke="#B35047" x1="448" y1="0" x2="448" y2="448"/>
	<line display="inline" fill="none" stroke="#B35047" x1="0" y1="32" x2="480" y2="32"/>
	<line display="inline" fill="none" stroke="#B35047" x1="0" y1="64" x2="480" y2="64"/>
	<line display="inline" fill="none" stroke="#B35047" x1="0" y1="96" x2="480" y2="96"/>
	<line display="inline" fill="none" stroke="#B35047" x1="0" y1="128" x2="480" y2="128"/>
	<line display="inline" fill="none" stroke="#B35047" x1="0" y1="160" x2="480" y2="160"/>
	<line display="inline" fill="none" stroke="#B35047" x1="0" y1="192" x2="480" y2="192"/>
	<line display="inline" fill="none" stroke="#B35047" x1="0" y1="224" x2="480" y2="224"/>
	<line display="inline" fill="none" stroke="#B35047" x1="0" y1="256" x2="480" y2="256"/>
	<line display="inline" fill="none" stroke="#B35047" x1="0" y1="288" x2="480" y2="288"/>
	<line display="inline" fill="none" stroke="#B35047" x1="0" y1="320" x2="480" y2="320"/>
	<line display="inline" fill="none" stroke="#B35047" x1="0" y1="352" x2="480" y2="352"/>
	<line display="inline" fill="none" stroke="#B35047" x1="0" y1="384" x2="480" y2="384"/>
	<line display="inline" fill="none" stroke="#B35047" x1="0" y1="416" x2="480" y2="416"/>
	<rect display="inline" fill="none" stroke="#B35047" width="480" height="448"/>
</g>
<path fill="#FFFFFF" d="M109.242,316.3c-10.576,0-19.63-3.765-27.161-11.297c-7.531-7.533-11.297-16.586-11.297-27.161V108.625
	c0-10.576,3.766-19.63,11.297-27.161c7.531-7.531,16.585-11.297,27.161-11.297h261.517c10.575,0,19.629,3.766,27.161,11.297
	c7.531,7.531,11.297,16.585,11.297,27.161v169.217c0,10.575-3.766,19.628-11.297,27.161c-7.532,7.532-16.586,11.297-27.161,11.297
	H109.242z M101.55,108.625v169.217c0,2.082,0.762,3.885,2.284,5.408c1.522,1.522,3.325,2.283,5.408,2.283h261.517
	c2.083,0,3.886-0.761,5.408-2.283c1.521-1.523,2.283-3.326,2.283-5.408V108.625c0-2.083-0.762-3.886-2.283-5.408
	c-1.522-1.522-3.325-2.283-5.408-2.283H109.242c-2.083,0-3.886,0.761-5.408,2.283S101.55,106.542,101.55,108.625z M432.292,331.683
	h38.458v23.075c0,6.409-3.766,11.859-11.297,16.345c-7.531,4.486-16.585,6.73-27.161,6.73H47.708c-10.576,0-19.63-2.244-27.161-6.73
	c-7.531-4.485-11.297-9.936-11.297-16.345v-23.075h38.458H432.292z M259.229,354.758c2.562,0,3.846-1.282,3.846-3.846
	c0-2.562-1.283-3.846-3.846-3.846h-38.458c-2.564,0-3.846,1.283-3.846,3.846c0,2.563,1.282,3.846,3.846,3.846H259.229z"/>
</svg>
